<mxfile host="65bd71144e">
    <diagram id="fnI3_iQXw4OiTnrx4XOU" name="update">
        <mxGraphModel dx="1111" dy="677" grid="1" gridSize="10" guides="1" tooltips="1" connect="1" arrows="1" fold="1" page="1" pageScale="1" pageWidth="850" pageHeight="1100" math="0" shadow="0">
            <root>
                <mxCell id="6JDjqdKQVHiy1O1jxpU0-0"/>
                <mxCell id="6JDjqdKQVHiy1O1jxpU0-1" parent="6JDjqdKQVHiy1O1jxpU0-0"/>
                <mxCell id="6JDjqdKQVHiy1O1jxpU0-9" style="edgeStyle=orthogonalEdgeStyle;rounded=0;orthogonalLoop=1;jettySize=auto;html=1;entryX=0;entryY=0.5;entryDx=0;entryDy=0;" parent="6JDjqdKQVHiy1O1jxpU0-1" source="6JDjqdKQVHiy1O1jxpU0-2" edge="1">
                    <mxGeometry relative="1" as="geometry">
                        <mxPoint x="360" y="215" as="targetPoint"/>
                    </mxGeometry>
                </mxCell>
                <mxCell id="6JDjqdKQVHiy1O1jxpU0-2" value="" style="rounded=1;whiteSpace=wrap;html=1;" parent="6JDjqdKQVHiy1O1jxpU0-1" vertex="1">
                    <mxGeometry x="40" y="150" width="270" height="130" as="geometry"/>
                </mxCell>
                <mxCell id="6JDjqdKQVHiy1O1jxpU0-4" value="Execute Crime2Blob" style="text;html=1;strokeColor=none;fillColor=none;align=center;verticalAlign=middle;whiteSpace=wrap;rounded=0;" parent="6JDjqdKQVHiy1O1jxpU0-1" vertex="1">
                    <mxGeometry x="40" y="130" width="260" height="20" as="geometry"/>
                </mxCell>
                <mxCell id="6JDjqdKQVHiy1O1jxpU0-7" style="edgeStyle=orthogonalEdgeStyle;rounded=0;orthogonalLoop=1;jettySize=auto;html=1;entryX=0;entryY=0.5;entryDx=0;entryDy=0;" parent="6JDjqdKQVHiy1O1jxpU0-1" source="6JDjqdKQVHiy1O1jxpU0-5" edge="1">
                    <mxGeometry relative="1" as="geometry">
                        <mxPoint x="190" y="215" as="targetPoint"/>
                    </mxGeometry>
                </mxCell>
                <mxCell id="6JDjqdKQVHiy1O1jxpU0-5" value="Atlanta PD" style="rounded=1;whiteSpace=wrap;html=1;" parent="6JDjqdKQVHiy1O1jxpU0-1" vertex="1">
                    <mxGeometry x="70" y="185" width="65" height="60" as="geometry"/>
                </mxCell>
                <mxCell id="6JDjqdKQVHiy1O1jxpU0-21" style="edgeStyle=orthogonalEdgeStyle;rounded=0;orthogonalLoop=1;jettySize=auto;html=1;entryX=0;entryY=0.5;entryDx=0;entryDy=0;" parent="6JDjqdKQVHiy1O1jxpU0-1" source="6JDjqdKQVHiy1O1jxpU0-15" target="6JDjqdKQVHiy1O1jxpU0-16" edge="1">
                    <mxGeometry relative="1" as="geometry"/>
                </mxCell>
                <mxCell id="6JDjqdKQVHiy1O1jxpU0-15" value="Extract ZIP" style="rounded=1;whiteSpace=wrap;html=1;" parent="6JDjqdKQVHiy1O1jxpU0-1" vertex="1">
                    <mxGeometry x="365" y="185" width="120" height="60" as="geometry"/>
                </mxCell>
                <mxCell id="6JDjqdKQVHiy1O1jxpU0-16" value="" style="rounded=1;whiteSpace=wrap;html=1;" parent="6JDjqdKQVHiy1O1jxpU0-1" vertex="1">
                    <mxGeometry x="530" y="150" width="270" height="130" as="geometry"/>
                </mxCell>
                <mxCell id="6JDjqdKQVHiy1O1jxpU0-17" value="Execute GenerateCrime" style="text;html=1;strokeColor=none;fillColor=none;align=center;verticalAlign=middle;whiteSpace=wrap;rounded=0;" parent="6JDjqdKQVHiy1O1jxpU0-1" vertex="1">
                    <mxGeometry x="530" y="130" width="270" height="20" as="geometry"/>
                </mxCell>
                <mxCell id="6JDjqdKQVHiy1O1jxpU0-18" style="edgeStyle=orthogonalEdgeStyle;rounded=0;orthogonalLoop=1;jettySize=auto;html=1;entryX=0;entryY=0.5;entryDx=0;entryDy=0;" parent="6JDjqdKQVHiy1O1jxpU0-1" edge="1">
                    <mxGeometry relative="1" as="geometry">
                        <mxPoint x="628" y="215" as="sourcePoint"/>
                        <mxPoint x="690" y="215" as="targetPoint"/>
                    </mxGeometry>
                </mxCell>
                <mxCell id="6JDjqdKQVHiy1O1jxpU0-23" value="Raw" style="aspect=fixed;html=1;points=[];align=center;image;fontSize=12;image=img/lib/azure2/storage/Storage_Accounts.svg;" parent="6JDjqdKQVHiy1O1jxpU0-1" vertex="1">
                    <mxGeometry x="190" y="185" width="68.75" height="55" as="geometry"/>
                </mxCell>
                <mxCell id="6JDjqdKQVHiy1O1jxpU0-24" value="Raw" style="aspect=fixed;html=1;points=[];align=center;image;fontSize=12;image=img/lib/azure2/storage/Storage_Accounts.svg;" parent="6JDjqdKQVHiy1O1jxpU0-1" vertex="1">
                    <mxGeometry x="560" y="180" width="68.75" height="55" as="geometry"/>
                </mxCell>
                <mxCell id="6JDjqdKQVHiy1O1jxpU0-25" value="" style="aspect=fixed;html=1;points=[];align=center;image;fontSize=12;image=img/lib/azure2/compute/Function_Apps.svg;" parent="6JDjqdKQVHiy1O1jxpU0-1" vertex="1">
                    <mxGeometry x="50" y="116.47" width="38" height="33.53" as="geometry"/>
                </mxCell>
                <mxCell id="6JDjqdKQVHiy1O1jxpU0-27" value="" style="aspect=fixed;html=1;points=[];align=center;image;fontSize=12;image=img/lib/azure2/compute/Function_Apps.svg;" parent="6JDjqdKQVHiy1O1jxpU0-1" vertex="1">
                    <mxGeometry x="540" y="110" width="38" height="33.53" as="geometry"/>
                </mxCell>
                <mxCell id="6JDjqdKQVHiy1O1jxpU0-29" style="edgeStyle=orthogonalEdgeStyle;rounded=0;orthogonalLoop=1;jettySize=auto;html=1;entryX=0.5;entryY=0;entryDx=0;entryDy=0;" parent="6JDjqdKQVHiy1O1jxpU0-1" source="6JDjqdKQVHiy1O1jxpU0-28" target="6JDjqdKQVHiy1O1jxpU0-4" edge="1">
                    <mxGeometry relative="1" as="geometry"/>
                </mxCell>
                <mxCell id="6JDjqdKQVHiy1O1jxpU0-28" value="Every Friday morning at 6 AM EDT/EST" style="aspect=fixed;html=1;points=[];align=left;image;fontSize=12;image=img/lib/azure2/iot/Logic_Apps.svg;labelPosition=right;verticalLabelPosition=middle;verticalAlign=middle;" parent="6JDjqdKQVHiy1O1jxpU0-1" vertex="1">
                    <mxGeometry x="50" y="9.999999999999998" width="67" height="52" as="geometry"/>
                </mxCell>
                <mxCell id="5" style="edgeStyle=orthogonalEdgeStyle;rounded=0;orthogonalLoop=1;jettySize=auto;html=1;entryX=0.484;entryY=0.99;entryDx=0;entryDy=0;entryPerimeter=0;" edge="1" parent="6JDjqdKQVHiy1O1jxpU0-1" source="6JDjqdKQVHiy1O1jxpU0-31" target="4">
                    <mxGeometry relative="1" as="geometry"/>
                </mxCell>
                <mxCell id="6JDjqdKQVHiy1O1jxpU0-31" value="Atlanta Crime Web App" style="aspect=fixed;html=1;points=[];align=center;image;fontSize=12;image=img/lib/azure2/compute/App_Services.svg;" parent="6JDjqdKQVHiy1O1jxpU0-1" vertex="1">
                    <mxGeometry x="692.37" y="360" width="64" height="64" as="geometry"/>
                </mxCell>
                <mxCell id="0" value="Create &quot;clean 2020 data (doesn't change)&quot;&lt;br&gt;&lt;br&gt;Each week, a notebook gets data from Blob and writes to SQL&lt;br&gt;&lt;br&gt;A view is created that combines 2020 and 2021 data together and is what is pulled into the web app&lt;br&gt;&lt;br&gt;A flat file is stored in blob and serves as input to the Crime app&lt;br&gt;&lt;br&gt;" style="rounded=1;whiteSpace=wrap;html=1;" vertex="1" parent="6JDjqdKQVHiy1O1jxpU0-1">
                    <mxGeometry x="44.38" y="350" width="360" height="210" as="geometry"/>
                </mxCell>
                <mxCell id="4" value="Certified" style="aspect=fixed;html=1;points=[];align=center;image;fontSize=12;image=img/lib/azure2/storage/Storage_Accounts.svg;" vertex="1" parent="6JDjqdKQVHiy1O1jxpU0-1">
                    <mxGeometry x="690" y="180" width="68.75" height="55" as="geometry"/>
                </mxCell>
            </root>
        </mxGraphModel>
    </diagram>
    <diagram id="yowrlgaX1Kdxxqxivsnb" name="layout">
        <mxGraphModel dx="391" dy="474" grid="1" gridSize="10" guides="1" tooltips="1" connect="1" arrows="1" fold="1" page="1" pageScale="1" pageWidth="850" pageHeight="1100" math="0" shadow="0">
            <root>
                <mxCell id="uwYrSNLBMI2gb99kesB4-0"/>
                <mxCell id="uwYrSNLBMI2gb99kesB4-1" parent="uwYrSNLBMI2gb99kesB4-0"/>
                <mxCell id="uwYrSNLBMI2gb99kesB4-2" value="Map" style="rounded=1;whiteSpace=wrap;html=1;" parent="uwYrSNLBMI2gb99kesB4-1" vertex="1">
                    <mxGeometry x="310" y="170" width="130" height="110" as="geometry"/>
                </mxCell>
                <mxCell id="uwYrSNLBMI2gb99kesB4-3" value="# 2020" style="rounded=1;whiteSpace=wrap;html=1;" parent="uwYrSNLBMI2gb99kesB4-1" vertex="1">
                    <mxGeometry x="170" y="170" width="60" height="30" as="geometry"/>
                </mxCell>
                <mxCell id="uwYrSNLBMI2gb99kesB4-4" value="YoY Comp." style="rounded=1;whiteSpace=wrap;html=1;" parent="uwYrSNLBMI2gb99kesB4-1" vertex="1">
                    <mxGeometry x="240" y="170" width="60" height="30" as="geometry"/>
                </mxCell>
                <mxCell id="uwYrSNLBMI2gb99kesB4-5" value="Filter row" style="rounded=1;whiteSpace=wrap;html=1;" parent="uwYrSNLBMI2gb99kesB4-1" vertex="1">
                    <mxGeometry x="170" y="130" width="270" height="30" as="geometry"/>
                </mxCell>
                <mxCell id="uwYrSNLBMI2gb99kesB4-6" value="Trend" style="rounded=1;whiteSpace=wrap;html=1;" parent="uwYrSNLBMI2gb99kesB4-1" vertex="1">
                    <mxGeometry x="240" y="210" width="60" height="30" as="geometry"/>
                </mxCell>
                <mxCell id="hZrnMsAzkJg7uWu7PhoQ-0" value="dots" style="rounded=1;whiteSpace=wrap;html=1;" parent="uwYrSNLBMI2gb99kesB4-1" vertex="1">
                    <mxGeometry x="170" y="210" width="60" height="30" as="geometry"/>
                </mxCell>
            </root>
        </mxGraphModel>
    </diagram>
    <diagram id="iai2MzG02rngsawtCdba" name="yoy">
        <mxGraphModel dx="942" dy="474" grid="1" gridSize="10" guides="1" tooltips="1" connect="1" arrows="1" fold="1" page="1" pageScale="1" pageWidth="850" pageHeight="1100" math="0" shadow="0">
            <root>
                <mxCell id="0"/>
                <mxCell id="1" parent="0"/>
                <mxCell id="5" value="To create YoY comps" style="edgeStyle=orthogonalEdgeStyle;rounded=0;orthogonalLoop=1;jettySize=auto;html=1;entryX=0.5;entryY=0;entryDx=0;entryDy=0;" parent="1" source="2" target="3" edge="1">
                    <mxGeometry relative="1" as="geometry"/>
                </mxCell>
                <mxCell id="2" value="&lt;div style=&quot;text-align: center&quot;&gt;&lt;span&gt;when user makes selection, df_map constrained by any combo of&lt;/span&gt;&lt;/div&gt;&lt;ol&gt;&lt;li&gt;Neighborhood(s)&lt;/li&gt;&lt;li&gt;Crimes(s)&lt;/li&gt;&lt;li&gt;Occur date (days of year)&lt;/li&gt;&lt;/ol&gt;" style="rounded=1;whiteSpace=wrap;html=1;align=left;" parent="1" vertex="1">
                    <mxGeometry x="40" y="40" width="210" height="120" as="geometry"/>
                </mxCell>
                <mxCell id="3" value="&lt;div style=&quot;text-align: left&quot;&gt;&lt;ol&gt;&lt;li&gt;Constrain 2020 data by same neighborhoods, same crimes, same occur days&lt;/li&gt;&lt;li&gt;Aggregate both datasets&lt;/li&gt;&lt;li&gt;Merge&lt;/li&gt;&lt;li&gt;Calculate YoY comps&lt;/li&gt;&lt;li&gt;Return dataframe&lt;/li&gt;&lt;/ol&gt;&lt;/div&gt;" style="rounded=1;whiteSpace=wrap;html=1;align=left;" parent="1" vertex="1">
                    <mxGeometry x="40" y="230" width="220" height="140" as="geometry"/>
                </mxCell>
            </root>
        </mxGraphModel>
    </diagram>
</mxfile>